<svg width="40" height="40" viewBox="0 0 40 40" fill="none" xmlns="http://www.w3.org/2000/svg">
  <!-- Autopilot 로고: 자동화를 상징하는 기어와 화살표 조합 -->
  <defs>
    <linearGradient id="logoGradient" x1="0%" y1="0%" x2="100%" y2="100%">
      <stop offset="0%" style="stop-color:#FF6B35;stop-opacity:1" />
      <stop offset="50%" style="stop-color:#F7931E;stop-opacity:1" />
      <stop offset="100%" style="stop-color:#6C5CE7;stop-opacity:1" />
    </linearGradient>
  </defs>
  
  <!-- 배경 원 -->
  <circle cx="20" cy="20" r="18" fill="url(#logoGradient)" />
  
  <!-- 기어 아이콘 (자동화 상징) -->
  <path d="M20 12 L22 12 L22.5 14 L24 13.5 L25 15 L23.5 16 L24.5 17.5 L23 18.5 L22 18 L20 18 L19 18.5 L17.5 17.5 L18.5 16 L17 15 L18 13.5 L19.5 14 Z" 
        fill="white" 
        transform="rotate(15 20 20)" />
  
  <!-- 중심 원 -->
  <circle cx="20" cy="20" r="4" fill="white" />
  
  <!-- 화살표 (진행/자동화 상징) -->
  <path d="M20 8 L22 10 L20.5 10 L20.5 14 L19.5 14 L19.5 10 L18 10 Z" fill="white" />
</svg>
